<?xml version="1.0" standalone="no"?>
<!DOCTYPE svg PUBLIC "-//W3C//DTD SVG 20010904//EN"
 "http://www.w3.org/TR/2001/REC-SVG-20010904/DTD/svg10.dtd">
<svg version="1.0" xmlns="http://www.w3.org/2000/svg"
 width="163.000000pt" height="129.000000pt" viewBox="0 0 163.000000 129.000000"
 preserveAspectRatio="xMidYMid meet">

<g transform="translate(0.000000,129.000000) scale(0.100000,-0.100000)"
fill="red" stroke="none">
<path d="M101 758 l0 -403 29 110 c47 182 97 284 178 363 54 53 142 102 182
102 38 0 90 -107 90 -186 0 -24 4 -44 8 -44 17 0 90 59 115 92 34 44 47 105
36 164 -15 77 -56 126 -144 172 -49 26 -55 27 -272 30 l-223 4 1 -404z"/>
<path d="M225 503 c-18 -3 -20 -10 -17 -83 3 -61 7 -80 18 -80 11 0 14 17 14
76 0 72 1 75 23 72 27 -4 37 -45 13 -54 -24 -9 -20 -28 13 -63 42 -45 58 -38
22 8 -30 38 -31 40 -11 46 23 7 27 46 7 63 -15 13 -54 20 -82 15z"/>
<path d="M415 502 c-18 -6 -20 -16 -20 -82 0 -66 2 -76 20 -82 35 -11 82 -8
94 6 10 11 4 13 -34 8 l-45 -5 0 38 c0 37 0 38 35 32 24 -4 35 -2 35 7 0 8
-12 11 -35 8 -34 -4 -35 -3 -35 28 0 31 1 32 40 28 40 -4 53 5 24 16 -19 7
-52 6 -79 -2z"/>
<path d="M583 503 c-22 -4 -23 -9 -23 -83 0 -75 1 -78 25 -84 37 -9 102 11
120 37 8 12 15 34 15 50 0 33 -40 77 -69 77 -11 0 -25 2 -33 4 -7 2 -23 1 -35
-1z m87 -33 c43 -43 11 -120 -50 -120 l-30 0 0 70 0 70 30 0 c17 0 39 -9 50
-20z"/>
<path d="M775 503 c-18 -3 -20 -10 -17 -88 3 -68 6 -83 18 -78 10 4 14 24 14
80 0 71 1 74 23 71 27 -4 37 -45 13 -54 -24 -9 -20 -28 13 -63 38 -40 61 -40
27 0 -30 35 -32 47 -11 55 18 7 20 48 3 61 -17 13 -57 21 -83 16z"/>
<path d="M975 498 c-70 -40 -56 -145 21 -164 36 -9 72 10 91 50 14 29 14 39 3
66 -12 30 -54 60 -82 60 -7 0 -22 -6 -33 -12z m62 -13 c45 -32 36 -129 -14
-142 -55 -13 -88 92 -43 137 24 24 29 24 57 5z"/>
<path d="M1156 489 c-38 -30 -50 -65 -35 -101 18 -44 96 -76 114 -48 4 6 -6
10 -22 10 -49 0 -65 19 -61 75 3 43 7 52 30 63 23 11 32 10 58 -3 25 -13 30
-13 30 -2 0 13 -40 27 -75 27 -7 0 -24 -10 -39 -21z"/>
<path d="M1312 420 c0 -68 2 -80 16 -80 14 0 17 12 17 80 0 68 -3 80 -17 80
-14 0 -16 -12 -16 -80z"/>
<path d="M1400 488 c0 -7 -11 -24 -25 -38 l-24 -26 38 -42 c21 -23 47 -42 57
-42 13 0 5 12 -29 46 l-47 45 36 35 c33 30 34 34 15 34 -11 0 -21 -5 -21 -12z"/>
</g>
</svg>
